HIERARCHY
ROOT Hips
{
  OFFSET -31.5692 30.0904 122.763
  CHANNELS 6 Xposition Yposition Zposition Zrotation Xrotation Yrotation
  JOINT LeftUpLeg
  {
    OFFSET 8.64259 1.95398 -2.38835
    CHANNELS 3 Zrotation Xrotation Yrotation
    JOINT LeftLeg
    {
      OFFSET 43.7702 0 0
      CHANNELS 3 Zrotation Xrotation Yrotation
      JOINT LeftFoot
      {
        OFFSET 40.6238 0 0
        CHANNELS 3 Zrotation Xrotation Yrotation
        JOINT LeftToeBase
        {
          OFFSET 12.7242 0 0
          CHANNELS 3 Zrotation Xrotation Yrotation
          End Site
          {
            OFFSET 0 0 0
          }
        }
      }
    }
  }
  JOINT RightUpLeg
  {
    OFFSET -8.2249 1.95398 -2.59336
    CHANNELS 3 Zrotation Xrotation Yrotation
    JOINT RightLeg
    {
      OFFSET 43.5653 0 0
      CHANNELS 3 Zrotation Xrotation Yrotation
      JOINT RightFoot
      {
        OFFSET 40.6238 0 0
        CHANNELS 3 Zrotation Xrotation Yrotation
        JOINT RightToeBase
        {
          OFFSET 12.7242 0 0
          CHANNELS 3 Zrotation Xrotation Yrotation
          End Site
          {
            OFFSET 0 0 0
          }
        }
      }
    }
  }
  JOINT Spine
  {
    OFFSET 0.165834 0.87714 6.61349
    CHANNELS 3 Zrotation Xrotation Yrotation
    JOINT Spine1
    {
      OFFSET 7.38963 1.71661e-005 0
      CHANNELS 3 Zrotation Xrotation Yrotation
      JOINT Spine2
      {
        OFFSET 11.9445 1.14441e-005 0
        CHANNELS 3 Zrotation Xrotation Yrotation
        JOINT Spine3
        {
          OFFSET 14.7254 4.19617e-005 0
          CHANNELS 3 Zrotation Xrotation Yrotation
          JOINT Spine4
          {
            OFFSET 10.9679 0 0
            CHANNELS 3 Zrotation Xrotation Yrotation
            JOINT RightShoulder
            {
              OFFSET 2.46616 -1.6653 3.69651
              CHANNELS 3 Zrotation Xrotation Yrotation
              JOINT RightArm
              {
                OFFSET 13.0012 0 0
                CHANNELS 3 Zrotation Xrotation Yrotation
                JOINT RightForeArm
                {
                  OFFSET 28.7848 1.62311e-005 0
                  CHANNELS 3 Zrotation Xrotation Yrotation
                  JOINT RightHand
                  {
                    OFFSET 26.5688 1.62095e-005 0
                    CHANNELS 3 Zrotation Xrotation Yrotation
                    End Site
                    {
                      OFFSET 0 0 0
                    }
                  }
                }
              }
            }
            JOINT LeftShoulder
            {
              OFFSET 2.38034 -1.29275 -3.7523
              CHANNELS 3 Zrotation Xrotation Yrotation
              JOINT LeftArm
              {
                OFFSET 16.3182 6.07031e-005 0
                CHANNELS 3 Zrotation Xrotation Yrotation
                JOINT LeftForeArm
                {
                  OFFSET 27.0901 0 0
                  CHANNELS 3 Zrotation Xrotation Yrotation
                  JOINT LeftHand
                  {
                    OFFSET 24.5451 1.51738e-005 0
                    CHANNELS 3 Zrotation Xrotation Yrotation
                    End Site
                    {
                      OFFSET 0 0 0
                    }
                  }
                }
              }
            }
            JOINT Neck
            {
              OFFSET 5.0226 -0.0266342 0
              CHANNELS 3 Zrotation Xrotation Yrotation
              JOINT Head
              {
                OFFSET 6.69364 2.86102e-005 0
                CHANNELS 3 Zrotation Xrotation Yrotation
                End Site
                {
                  OFFSET 0 0 0
                }
              }
            }
          }
        }
      }
    }
  }
}
MOTION
Frames:	10
Frame Time:	0.0416667
36.9847 102.723 -345.141 -176.056 -83.8006 -177.333 -171.962 -7.19951 91.373 -6.86374 6.79638 0.0326372 66.8712 5.73277 1.67021 25.2472 -8.06544 15.9682 172.75 -4.41287 90.8949 -13.878 -6.63318 0.0703416 69.0869 -5.25238 -0.669871 26.4104 0.309842 3.54731 0.195842 7.53303 -89.9469 11.8077 0.414502 0.0619389 0.136867 0.416836 0.043627 -22.3987 0.376724 0.183645 -2.38608 0.376734 0.183656 91.5931 -31.7324 -103.019 39.7625 -5.14392 -8.49494 3.74974 -35.022 -13.5919 -15.5069 -0.608447 -9.59495 -88.2606 -51.4786 81.6035 -23.0986 13.5196 -13.1949 -5.29749 13.8681 -0.00433728 3.25406 -0.131221 -16.2248 3.01261 -3.39369 -2.02377 -8.01885 -2.97199 -1.13994 
35.9392 102.425 -344.334 -171.03 -82.9411 -173.132 -171.605 -8.13247 91.4073 -7.54135 6.34774 -0.236693 67.5638 7.52035 4.07456 25.0413 -5.95645 10.6553 171.806 -4.64597 90.0466 -16.1527 -7.6684 0.36523 71.0246 -5.82181 -0.366404 25.7694 0.549878 3.70853 0.244855 7.60857 -89.872 11.6566 0.547097 0.198228 -0.0142485 0.555297 0.173943 -22.55 0.462224 0.353489 -2.53736 0.462231 0.35349 89.833 -31.3657 -106.572 39.6211 -8.17254 -7.13771 6.46012 -37.2592 -13.1793 -25.9721 -0.905219 -7.10592 -88.1251 -53.0754 82.0842 -22.2994 10.0657 -11.1264 -4.56657 14.0736 -0.00434115 -0.0260282 0.113123 -21.4324 1.62242 -2.97654 -0.799472 -7.32551 -2.78146 -1.23184 
34.6347 101.867 -343.524 -175.25 -82.6413 -177.739 -170.7 -6.4592 93.3038 -11.8244 7.1168 -0.38043 68.2059 8.90386 3.89704 26.9647 -5.20026 11.7302 171.724 -4.34812 90.3422 -18.9313 -7.06668 0.527249 73.0037 -6.2975 -0.622028 24.7345 1.06246 3.4395 0.302456 7.73643 -89.81 11.4002 0.690491 0.307921 -0.270639 0.703377 0.277225 -22.8066 0.566022 0.501213 -2.79392 0.566021 0.501201 90.0437 -31.0166 -106.29 39.7224 -8.56247 -7.27822 6.99367 -36.5621 -12.8764 -25.7039 -0.792333 -7.65623 -87.6393 -52.6405 82.716 -21.9923 9.20038 -9.58048 -3.95703 11.0036 -0.00428971 3.48651 -0.514184 -19.5085 2.45412 -2.75722 -0.0394338 -7.7344 -2.67443 -1.25899 
33.7181 101.486 -342.902 177.766 -82.8374 175.325 -171.323 1.48011 90.8443 -25.9357 5.19588 0.367526 69.8642 7.85916 -0.102205 27.3754 -5.52733 13.2172 171.768 -4.41399 90.9803 -19.4979 -6.0149 0.889292 74.0434 -6.76727 -0.840342 25.0458 0.702169 4.39137 0.333012 7.7916 -89.8838 11.2903 0.716886 0.160276 -0.380431 0.723236 0.128565 -22.9168 0.635568 0.368326 -2.90419 0.63557 0.368326 89.5639 -30.9054 -107.268 38.6812 -8.24541 -6.51463 6.78727 -35.842 -13.1758 -24.3851 -0.806545 -7.44971 -87.5135 -52.8037 82.9269 -21.6722 7.90115 -7.92056 -3.17115 9.88646 -0.00427432 3.15907 -0.537404 -20.153 2.33763 -2.39345 1.03139 -7.38617 -2.48101 -1.43422 
33.1347 101.462 -342.054 164.999 -83.1263 161.884 -173.409 9.33534 91.253 -38.8396 5.53226 1.34724 69.1468 5.78206 -1.4134 25.7348 -5.39411 10.3122 171.807 -5.50337 91.0191 -17.4774 -4.01668 0.881937 74.3191 -6.98922 -0.585326 25.2138 0.657587 4.27151 0.417986 7.8075 -89.8786 11.2585 0.88839 0.153781 -0.412152 0.894297 0.114522 -22.9493 0.801097 0.413688 -2.93665 0.801092 0.413676 89.8191 -30.0255 -107.108 39.2567 -8.28995 -6.10547 7.22604 -29.4596 -12.8992 -23.8576 -0.194302 -9.56123 -87.3783 -52.4781 83.0708 -21.7411 7.25544 -6.36459 -3.17575 8.49286 -0.00425753 3.99076 -0.704698 -19.9641 1.893 -2.43676 1.38323 -7.07877 -2.56694 -1.88187 
33.3697 101.638 -340.675 158.545 -83.555 153.798 -175.076 14.1933 87.251 -38.5682 5.67308 0.57997 69.5089 5.03414 -5.07891 25.5234 -6.68557 13.1454 170.925 -5.77782 89.2017 -17.0488 -4.49903 0.661459 74.3649 -7.13698 -0.712638 26.3576 0.385948 3.31274 0.678522 7.86191 -89.8077 11.1492 1.43988 0.242238 -0.521005 1.44915 0.178616 -23.0615 1.3005 0.663854 -3.04882 1.3005 0.663854 89.5912 -29.7817 -107.655 37.8505 -9.08206 -7.59659 8.33286 -29.9431 -11.9905 -24.7899 -0.236102 -9.30677 -87.2573 -52.3343 83.2247 -22.5197 6.18069 -4.67621 -2.41097 8.44268 -0.214685 4.02276 -0.747591 -20.509 2.10684 -2.98943 2.55895 -7.11571 -3.27662 -2.66581 
33.8428 101.319 -338.332 146.394 -83.6726 140.511 -177.122 16.8347 83.1391 -28.003 8.3245 -0.442971 65.8236 3.73558 -2.7416 24.0113 -6.65431 10.9504 170.351 -6.19477 88.0227 -17.4871 -3.32117 0.417069 75.7173 -7.63042 -0.545539 27.1631 0.0229265 3.35226 0.812017 7.91058 -89.8021 11.0519 1.70821 0.229186 -0.617948 1.71665 0.153757 -23.1608 1.56034 0.732101 -3.14815 1.56034 0.732092 89.3125 -29.6053 -108.278 36.006 -8.76292 -10.7942 6.36692 -30.1267 -14.2519 -22.4246 -0.140249 -10.2992 -86.9219 -52.5079 83.7426 -23.735 4.85793 -2.1942 -1.4965 9.40264 -0.879971 3.52396 -0.645023 -20.5732 2.97148 -2.96162 4.21877 -6.63651 -3.54095 -2.91661 
34.334 100.62 -334.905 139.549 -83.6812 133.428 -179.414 16.8028 80.4913 -12.6601 8.89908 -0.816673 63.4734 3.9389 -0.374176 18.8902 -7.49289 5.83361 169.798 -7.67445 87.4946 -18.0632 -2.77927 0.390735 77.447 -8.63866 -0.852053 29.0704 -0.97696 4.30868 0.996756 7.96037 -89.9298 10.9551 2.01693 -0.0518631 -0.714286 2.0127 -0.140624 -23.2613 1.93923 0.556939 -3.24869 1.93924 0.55694 89.4628 -29.1586 -108.162 33.9008 -9.09379 -14.0032 5.49391 -29.3769 -15.9368 -23.0229 -0.0172637 -10.7267 -87.5516 -53.7404 83.0248 -23.8756 5.90302 0.090708 -2.20785 8.60285 -1.00333 2.89037 -0.459367 -18.6649 3.21401 -2.92152 5.81261 -5.28327 -3.80252 -3.50634 
34.5796 99.5708 -329.954 147.157 -84.2909 141.447 -179.592 18.4583 79.8159 -8.20857 6.06646 -1.77884 63.7641 3.72229 -1.50306 17.4061 -8.62653 6.40098 170.222 -11.3831 87.9525 -17.4098 -2.03533 -0.517738 79.2977 -9.8059 -0.386781 30.4897 -1.45039 3.61392 1.1451 8.00743 -89.9899 10.8628 2.28468 -0.19412 -0.806216 2.27391 -0.294546 -23.357 2.23734 0.501842 -3.34438 2.23734 0.50184 88.7733 -29.5691 -109.362 32.2842 -8.86707 -16.8174 4.22406 -32.3944 -17.1459 -21.1893 -0.152986 -11.0893 -87.2518 -54.4726 83.5703 -24.8553 5.87143 2.36524 -2.80755 9.45855 -0.00279437 2.9811 -0.317098 -16.4734 3.47374 -2.65549 5.42146 -4.8194 -3.49898 -3.4386 
35.0299 98.3595 -323.173 -172.549 -85.5967 -177.914 -178.773 19.0679 80.3213 -11.3265 2.10405 -1.83289 61.1969 2.08551 -1.8505 16.4736 -8.87043 5.7885 169.279 -15.2643 86.668 -17.3006 -6.17461 -1.36742 78.2386 -9.51537 -0.438052 34.6505 -2.78563 0.52455 1.4212 7.93317 -89.9159 11.0117 2.86823 -0.107062 -0.656071 2.86073 -0.233305 -23.2154 2.76769 0.760575 -3.20272 2.76769 0.760584 88.5092 -29.6508 -109.849 32.6557 -9.68073 -18.425 4.42664 -34.4774 -16.9907 -21.1367 -0.148383 -11.8399 -87.0313 -55.8424 84.0895 -24.7194 5.3071 5.14816 -2.29467 8.49024 -0.00548715 0.718978 -0.0640364 -16.5929 4.0983 -2.09735 4.6632 -5.62658 -2.81825 -3.56244 
